# xmcd CD database file
#
# Track frame offsets:
#	150
#	37407
#	67650
#	117552
#	165762
#	199262
#	254737
#	304015
#
# Disc length: 4409 seconds
#
# Revision: 10
# Processed by: cddbd v1.5.2PL0 Copyright (c) Steve Scherf et al.
# Submitted via: CDex 1.70beta2
#
DISCID=6e113708
DTITLE=Keith Jarrett - Standards In Norway
DYEAR=1989
DGENRE=Jazz
TTITLE0=All Of You
TTITLE1=Little Girl Blue
TTITLE2=Just In Time
TTITLE3=Old Folks
TTITLE4=Love Is A Many-Splendored Thing
TTITLE5=Dedicated To You
TTITLE6=I Hear A Rhapsody
TTITLE7=How About You?
EXTD=Live at Oslo, October 1989.\n\nPersonnal:\n\nKeith Jarrett          Piano\nGary Peacock       Bass   \nJack DeJohnette    Drums\n\n\nProduced by Manfred Eicher.\n\n1995 ECM. YEAR: 1989
EXTT0=
EXTT1=
EXTT2=
EXTT3=
EXTT4=
EXTT5=
EXTT6=
EXTT7=
PLAYORDER=
